<?xml version="1.0" encoding="utf-8"?>
<!-- Generator: Adobe Illustrator 16.0.0, SVG Export Plug-In . SVG Version: 6.00 Build 0)  -->
<!DOCTYPE svg PUBLIC "-//W3C//DTD SVG 1.1//EN" "http://www.w3.org/Graphics/SVG/1.1/DTD/svg11.dtd">
<svg version="1.1" id="Layer_1" xmlns="http://www.w3.org/2000/svg" xmlns:xlink="http://www.w3.org/1999/xlink" x="0px" y="0px"
	 width="283.464px" height="283.465px" viewBox="0 0 283.464 283.465" enable-background="new 0 0 283.464 283.465"
	 xml:space="preserve">
<g>
	<path fill="#F7941E" d="M121.986,222.082c0,0,60.371,13.306,82.795,2.465c5.18-2.505,5.984-11.117,5.337-18.729
		c-6.901-81.147-34.167-130.428-46.979-127.143c0,0-41.561-32.031-63.574-4.927c0,0,32.629-65.851,55.729-42.178
		c23.029,23.6,76.674,82.751,105.979,170.332c0,0,14.72,34.309-8.608,42.027C227.905,252.126,121.986,222.082,121.986,222.082z"/>
	<linearGradient id="SVGID_1_" gradientUnits="userSpaceOnUse" x1="177.8359" y1="254.3271" x2="239.9824" y2="146.6863">
		<stop  offset="0" style="stop-color:#A41D21"/>
		<stop  offset="0.3239" style="stop-color:#B94323;stop-opacity:0.6761"/>
		<stop  offset="1" style="stop-color:#F7941E;stop-opacity:0"/>
	</linearGradient>
	<path fill="url(#SVGID_1_)" d="M210.118,205.818c0.647,7.612-0.157,16.224-5.337,18.729c-22.424,10.84-82.795-2.465-82.795-2.465
		s105.919,30.044,130.678,21.847c23.328-7.718,8.608-42.027,8.608-42.027c-6.854-20.485-15.04-39.414-23.856-56.698h-37.221
		C204.605,162.562,208.171,182.923,210.118,205.818z"/>
	<path fill="#59AA47" d="M66.875,167.707c0,0-38.768,37.456,117.616,58.812c0,0,86.981,12.647,73.922-31.213
		c0,0,14.62,30.966,2.792,43.779c-11.825,12.813-71.208,16.754-108.169,17.988c-36.962,1.231-95.851-3.698-105.216-6.901
		c-9.364-3.202-28.09-27.105-11.579-56.426C52.749,164.424,66.875,167.707,66.875,167.707z"/>
	<linearGradient id="SVGID_2_" gradientUnits="userSpaceOnUse" x1="34.8818" y1="196.0859" x2="155.87" y2="265.9385">
		<stop  offset="0" style="stop-color:#22553F"/>
		<stop  offset="0.0662" style="stop-color:#275E41;stop-opacity:0.9338"/>
		<stop  offset="0.2207" style="stop-color:#367344;stop-opacity:0.7793"/>
		<stop  offset="0.3771" style="stop-color:#428646;stop-opacity:0.6229"/>
		<stop  offset="0.5332" style="stop-color:#4C9546;stop-opacity:0.4668"/>
		<stop  offset="0.6891" style="stop-color:#53A147;stop-opacity:0.3109"/>
		<stop  offset="0.8447" style="stop-color:#57A847;stop-opacity:0.1553"/>
		<stop  offset="1" style="stop-color:#59AA47;stop-opacity:0"/>
	</linearGradient>
	<path fill="url(#SVGID_2_)" d="M161.164,222.981c-129.037-21.696-94.289-55.274-94.289-55.274s-14.126-3.283-30.634,26.039
		c-16.511,29.32,2.215,53.224,11.579,56.426c9.365,3.203,68.254,8.133,105.216,6.901c2.606-0.089,5.327-0.188,8.128-0.305V222.981z"
		/>
	<linearGradient id="SVGID_3_" gradientUnits="userSpaceOnUse" x1="125.5615" y1="34.5342" x2="205.8374" y2="173.5761">
		<stop  offset="0" style="stop-color:#A41D21"/>
		<stop  offset="0.3239" style="stop-color:#B94323;stop-opacity:0.6761"/>
		<stop  offset="1" style="stop-color:#F7941E;stop-opacity:0"/>
	</linearGradient>
	<path fill="url(#SVGID_3_)" d="M155.293,31.57c-23.1-23.672-55.729,42.178-55.729,42.178c22.014-27.104,63.574,4.927,63.574,4.927
		c9.73-2.494,27.797,25.335,38.946,74.408h39.245C211.842,92.205,173.742,50.479,155.293,31.57z"/>
	<linearGradient id="SVGID_4_" gradientUnits="userSpaceOnUse" x1="17.6094" y1="139.4175" x2="209.9561" y2="139.4175">
		<stop  offset="0" style="stop-color:#0073AE"/>
		<stop  offset="0.3681" style="stop-color:#0090C8"/>
		<stop  offset="0.7873" style="stop-color:#2DB4E4"/>
		<stop  offset="1" style="stop-color:#49C8F5"/>
	</linearGradient>
	<path fill="url(#SVGID_4_)" d="M209.956,98.388c0,0-30.263-35.051-62.261-11.499C76.732,139.127,58.66,178.06,47.82,205.163
		c0,0-18.232,44.024,16.754,47.474c0,0-51.988-0.492-46.568-33.019c5.42-32.525,38.027-107.759,96.838-175.439
		c0,0,21.682-29.242,40.406-13.143C173.98,47.136,209.956,98.388,209.956,98.388z"/>
</g>
</svg>
