<?xml version="1.0" encoding="utf-8"?>
<!-- Generator: Adobe Illustrator 16.0.0, SVG Export Plug-In . SVG Version: 6.00 Build 0)  -->
<!DOCTYPE svg PUBLIC "-//W3C//DTD SVG 1.1//EN" "http://www.w3.org/Graphics/SVG/1.1/DTD/svg11.dtd">
<svg version="1.1" id="Layer_1" xmlns="http://www.w3.org/2000/svg" xmlns:xlink="http://www.w3.org/1999/xlink" x="0px" y="0px"
	 width="566.929px" height="283.465px" viewBox="0 0 566.929 283.465" enable-background="new 0 0 566.929 283.465"
	 xml:space="preserve">
<g>
	<path fill="#005BAA" d="M144.493,118.585c1.533-0.249,3.047-0.373,4.539-0.373c1.493,0,3.026,0.124,4.602,0.373v44.71
		c-1.576,0.249-3.088,0.373-4.539,0.373c-1.534,0-3.068-0.125-4.602-0.373V118.585z"/>
	<path fill="#005BAA" d="M162.338,118.585c1.284-0.249,2.508-0.373,3.668-0.373c1.244,0,2.528,0.124,3.855,0.373l17.287,28.48
		v-28.48c1.493-0.249,2.923-0.373,4.291-0.373c1.284,0,2.528,0.124,3.731,0.373v44.71c-1.328,0.249-2.529,0.373-3.607,0.373
		c-1.161,0-2.425-0.125-3.793-0.373l-17.412-28.418v28.418c-1.327,0.249-2.674,0.373-4.042,0.373s-2.695-0.125-3.979-0.373V118.585z
		"/>
	<path fill="#005BAA" d="M212.583,126.295h-11.131c-0.249-1.244-0.373-2.549-0.373-3.917c0-1.284,0.125-2.549,0.373-3.793h31.403
		c0.249,1.244,0.373,2.509,0.373,3.793c0,1.368-0.125,2.674-0.373,3.917h-11.131v37c-0.746,0.083-1.493,0.155-2.239,0.218
		c-0.746,0.062-1.472,0.093-2.176,0.093c-0.706,0-1.461-0.021-2.27-0.063c-0.808-0.042-1.627-0.124-2.456-0.249V126.295z"/>
	<path fill="#005BAA" d="M239.135,118.585h25.37c0.25,1.244,0.373,2.509,0.373,3.793c0,1.368-0.123,2.674-0.373,3.917h-16.292v9.701
		h12.934c0.249,1.328,0.373,2.612,0.373,3.855c0,1.327-0.124,2.633-0.373,3.917h-12.934v11.815h16.727
		c0.25,1.244,0.373,2.509,0.373,3.793c0,1.368-0.123,2.674-0.373,3.917h-25.806V118.585z"/>
	<path fill="#005BAA" d="M272.589,118.585c1.824-0.207,3.534-0.383,5.13-0.529c1.596-0.145,3.368-0.218,5.317-0.218
		c2.279,0,4.528,0.208,6.747,0.622c2.217,0.415,4.218,1.15,6,2.208s3.223,2.487,4.322,4.291c1.098,1.804,1.647,4.095,1.647,6.872
		c0,1.658-0.208,3.12-0.622,4.384c-0.414,1.265-0.943,2.374-1.585,3.327c-0.644,0.954-1.337,1.772-2.083,2.457
		c-0.747,0.684-1.452,1.234-2.114,1.648l-1.058,0.684l10.882,18.904c-0.829,0.083-1.7,0.165-2.611,0.249
		c-0.912,0.083-1.845,0.125-2.798,0.125c-1.576,0-3.131-0.125-4.664-0.373l-11.69-20.77l1.492-0.746
		c0.58-0.29,1.284-0.663,2.114-1.12c0.829-0.456,1.626-1.026,2.394-1.71c0.767-0.684,1.42-1.513,1.959-2.487
		c0.538-0.974,0.809-2.124,0.809-3.451c0-2.612-0.746-4.529-2.238-5.752c-1.493-1.222-3.42-1.834-5.783-1.834
		c-0.912,0-1.741,0.062-2.487,0.187v37.746c-0.746,0.083-1.492,0.155-2.239,0.218c-0.746,0.062-1.472,0.093-2.176,0.093
		c-0.706,0-1.452-0.021-2.239-0.063c-0.787-0.042-1.596-0.124-2.425-0.249V118.585z"/>
	<path fill="#005BAA" d="M310.396,158.32c0.58,0.166,1.182,0.353,1.804,0.56c0.621,0.208,1.315,0.395,2.083,0.56
		c0.767,0.166,1.626,0.311,2.58,0.436c0.953,0.124,2.053,0.187,3.296,0.187c1.99,0,3.7-0.238,5.13-0.715
		c1.431-0.476,2.612-1.119,3.545-1.928c0.933-0.808,1.627-1.761,2.083-2.86c0.456-1.098,0.685-2.29,0.685-3.576
		c0-1.244-0.156-2.311-0.467-3.202c-0.311-0.891-0.851-1.71-1.617-2.457c-0.768-0.746-1.824-1.461-3.171-2.145
		c-1.348-0.684-3.037-1.42-5.068-2.208c-1.451-0.539-2.829-1.12-4.135-1.741c-1.306-0.622-2.456-1.378-3.451-2.27
		c-0.995-0.891-1.783-1.958-2.363-3.202c-0.581-1.244-0.87-2.798-0.87-4.664c0-3.358,1.212-6.073,3.638-8.146
		c2.425-2.072,5.959-3.109,10.603-3.109c0.911,0,1.834,0.042,2.767,0.125c0.933,0.083,1.804,0.187,2.612,0.311
		c0.808,0.125,1.554,0.27,2.238,0.435c0.684,0.167,1.232,0.311,1.647,0.436c-0.083,0.622-0.197,1.254-0.342,1.896
		c-0.146,0.643-0.321,1.254-0.528,1.834c-0.995-0.332-2.27-0.631-3.824-0.902c-1.555-0.269-3.1-0.404-4.633-0.404
		c-3.441,0-5.907,0.705-7.4,2.114c-1.492,1.41-2.238,3.192-2.238,5.348c0,1.119,0.228,2.094,0.685,2.922
		c0.455,0.83,1.088,1.555,1.896,2.177c0.808,0.622,1.771,1.192,2.892,1.71c1.119,0.519,2.32,1.026,3.606,1.523
		c1.741,0.706,3.367,1.43,4.881,2.176c1.513,0.747,2.809,1.617,3.887,2.612c1.078,0.995,1.928,2.167,2.55,3.514
		c0.622,1.348,0.933,2.975,0.933,4.881c0,2.156-0.384,4.073-1.15,5.752c-0.768,1.679-1.855,3.089-3.265,4.229
		c-1.41,1.141-3.131,2.011-5.161,2.612c-2.032,0.6-4.313,0.901-6.841,0.901c-2.446,0-4.477-0.177-6.094-0.528
		c-1.616-0.352-3.13-0.756-4.539-1.213c0.082-0.622,0.228-1.295,0.436-2.021C309.919,159.554,310.146,158.901,310.396,158.32z"/>
	<path fill="#005BAA" d="M345.715,118.585h23.941c0.04,0.249,0.071,0.55,0.093,0.901c0.021,0.353,0.031,0.695,0.031,1.026
		c0,0.291-0.011,0.632-0.031,1.026c-0.021,0.395-0.053,0.715-0.093,0.964h-19.65v15.111h15.795c0.04,0.249,0.071,0.55,0.093,0.901
		c0.021,0.353,0.031,0.695,0.031,1.026c0,0.291-0.011,0.633-0.031,1.026c-0.021,0.395-0.053,0.715-0.093,0.964h-15.795v17.847h20.21
		c0.04,0.249,0.071,0.55,0.093,0.901c0.021,0.353,0.031,0.695,0.031,1.026c0,0.291-0.011,0.632-0.031,1.026
		c-0.021,0.395-0.053,0.715-0.093,0.964h-24.501V118.585z"/>
	<path fill="#005BAA" d="M379.294,118.398c0.912-0.083,1.71-0.156,2.395-0.218c0.684-0.062,1.347-0.125,1.989-0.187
		c0.643-0.063,1.316-0.103,2.021-0.125c0.704-0.021,1.533-0.031,2.487-0.031c1.99,0,3.948,0.208,5.876,0.622
		c1.928,0.415,3.658,1.13,5.192,2.146c1.533,1.016,2.768,2.384,3.7,4.104c0.933,1.721,1.399,3.886,1.399,6.498
		c0,1.617-0.291,3.089-0.871,4.415c-0.581,1.327-1.337,2.519-2.27,3.576s-2.011,1.969-3.233,2.736
		c-1.224,0.768-2.478,1.399-3.762,1.897l-0.498,0.187l14.24,19.277c-0.415,0.083-0.83,0.125-1.244,0.125s-0.829,0-1.243,0
		c-0.415,0-0.819,0-1.213,0c-0.395,0-0.799-0.042-1.212-0.125l-15.671-20.707v-0.249l1.368-0.373
		c1.409-0.373,2.777-0.86,4.104-1.461c1.326-0.6,2.497-1.326,3.513-2.176c1.016-0.849,1.835-1.855,2.457-3.016
		c0.621-1.16,0.933-2.528,0.933-4.104c0-3.233-0.995-5.659-2.985-7.275c-1.989-1.617-4.685-2.425-8.084-2.425
		c-0.87,0-1.679,0.021-2.425,0.063c-0.746,0.042-1.638,0.124-2.674,0.249v41.477c-0.291,0.041-0.644,0.072-1.058,0.093
		c-0.414,0.021-0.787,0.031-1.119,0.031c-0.373,0-0.746-0.011-1.119-0.031c-0.373-0.021-0.705-0.052-0.995-0.093V118.398z"/>
	<path fill="#005BAA" d="M411.442,118.585c0.249-0.041,0.611-0.072,1.088-0.093c0.477-0.021,0.922-0.031,1.337-0.031
		c0.373,0,0.809,0.011,1.307,0.031c0.497,0.021,0.891,0.052,1.181,0.093l12.499,40.481l12.313-40.481
		c0.331-0.041,0.715-0.072,1.15-0.093c0.436-0.021,0.84-0.031,1.213-0.031c0.414,0,0.859,0.011,1.337,0.031
		c0.476,0.021,0.84,0.052,1.088,0.093l-14.675,44.71c-0.291,0.041-0.706,0.072-1.244,0.093c-0.539,0.021-0.995,0.031-1.368,0.031
		c-0.415,0-0.87-0.011-1.368-0.031c-0.497-0.021-0.892-0.052-1.181-0.093L411.442,118.585z"/>
	<path fill="#005BAA" d="M454.162,118.585c0.29-0.041,0.643-0.072,1.058-0.093c0.414-0.021,0.787-0.031,1.119-0.031
		c0.373,0,0.746,0.011,1.119,0.031c0.373,0.021,0.704,0.052,0.995,0.093v44.71c-0.291,0.041-0.622,0.072-0.995,0.093
		c-0.373,0.021-0.746,0.031-1.119,0.031c-0.415,0-0.819-0.011-1.213-0.031c-0.395-0.021-0.715-0.052-0.964-0.093V118.585z"/>
	<path fill="#005BAA" d="M498.872,158.196c0.331,0.622,0.622,1.223,0.871,1.803c0.248,0.581,0.435,1.182,0.56,1.804
		c-1.41,0.705-3.089,1.254-5.037,1.647c-1.949,0.394-4.001,0.591-6.156,0.591c-3.026,0-5.794-0.498-8.302-1.492
		c-2.509-0.995-4.653-2.446-6.436-4.353c-1.783-1.906-3.172-4.269-4.166-7.089c-0.995-2.819-1.493-6.052-1.493-9.701
		c0-3.731,0.487-7.058,1.462-9.98c0.974-2.923,2.341-5.389,4.104-7.4c1.762-2.01,3.896-3.544,6.405-4.602
		c2.508-1.057,5.316-1.586,8.426-1.586c2.611,0,4.788,0.187,6.529,0.56s3.005,0.684,3.793,0.933
		c-0.083,0.746-0.197,1.368-0.342,1.865c-0.146,0.498-0.363,1.099-0.653,1.804c-0.539-0.166-1.088-0.332-1.647-0.498
		c-0.56-0.165-1.192-0.311-1.896-0.436c-0.705-0.124-1.523-0.227-2.456-0.311c-0.933-0.083-2.021-0.125-3.265-0.125
		c-2.447,0-4.644,0.446-6.592,1.337c-1.949,0.892-3.606,2.187-4.975,3.887c-1.368,1.7-2.425,3.772-3.172,6.218
		c-0.746,2.446-1.119,5.223-1.119,8.333c0,3.193,0.414,5.97,1.244,8.333c0.829,2.363,1.979,4.322,3.451,5.876
		c1.471,1.555,3.191,2.705,5.161,3.451c1.969,0.746,4.094,1.119,6.374,1.119c1.948,0,3.72-0.187,5.316-0.56
		C496.457,159.253,497.794,158.777,498.872,158.196z"/>
	<path fill="#005BAA" d="M509.442,118.585h23.941c0.04,0.249,0.071,0.55,0.093,0.901c0.021,0.353,0.031,0.695,0.031,1.026
		c0,0.291-0.011,0.632-0.031,1.026c-0.021,0.395-0.053,0.715-0.093,0.964h-19.65v15.111h15.795c0.04,0.249,0.071,0.55,0.093,0.901
		c0.021,0.353,0.031,0.695,0.031,1.026c0,0.291-0.011,0.633-0.031,1.026c-0.021,0.395-0.053,0.715-0.093,0.964h-15.795v17.847h20.21
		c0.04,0.249,0.071,0.55,0.093,0.901c0.021,0.353,0.031,0.695,0.031,1.026c0,0.291-0.011,0.632-0.031,1.026
		c-0.021,0.395-0.053,0.715-0.093,0.964h-24.501V118.585z"/>
</g>
<path fill="#6D6E71" d="M141.755,183.833c0.592,0.208,1.176,0.384,1.752,0.528c0.576,0.144,1.208,0.216,1.896,0.216
	c1.36,0,2.404-0.3,3.132-0.9c0.728-0.6,1.092-1.404,1.092-2.412c0-0.656-0.212-1.208-0.636-1.656
	c-0.424-0.448-1.068-0.904-1.932-1.368c-0.528-0.288-1.008-0.58-1.44-0.876c-0.432-0.296-0.8-0.612-1.104-0.948
	c-0.304-0.336-0.54-0.711-0.708-1.128c-0.168-0.416-0.252-0.888-0.252-1.416c0-0.751,0.144-1.432,0.432-2.04
	c0.288-0.607,0.7-1.128,1.236-1.56c0.536-0.432,1.18-0.768,1.932-1.008c0.751-0.24,1.592-0.36,2.52-0.36
	c0.864,0,1.608,0.064,2.232,0.192c0.624,0.128,1.215,0.304,1.776,0.528c-0.064,0.336-0.156,0.681-0.276,1.032
	c-0.12,0.352-0.285,0.688-0.492,1.008c-0.416-0.192-0.884-0.36-1.404-0.504c-0.521-0.144-1.116-0.216-1.788-0.216
	c-0.512,0-0.984,0.048-1.416,0.144c-0.432,0.096-0.808,0.24-1.128,0.432c-0.32,0.192-0.572,0.444-0.756,0.756
	s-0.276,0.684-0.276,1.116c0,0.64,0.192,1.172,0.576,1.596c0.384,0.424,0.976,0.852,1.776,1.284c0.592,0.32,1.124,0.632,1.596,0.936
	c0.472,0.304,0.872,0.632,1.2,0.984c0.328,0.352,0.58,0.744,0.756,1.176c0.176,0.432,0.264,0.936,0.264,1.512
	c0,0.88-0.164,1.68-0.492,2.4c-0.328,0.72-0.796,1.336-1.404,1.848c-0.608,0.512-1.344,0.908-2.208,1.188
	c-0.864,0.28-1.84,0.42-2.928,0.42c-0.88,0-1.672-0.068-2.376-0.204c-0.705-0.136-1.353-0.316-1.944-0.54
	C141.091,185.289,141.355,184.569,141.755,183.833z"/>
<path fill="#6D6E71" d="M158.997,186.737c-1.488,0-2.608-0.412-3.36-1.236c-0.752-0.824-1.128-1.988-1.128-3.492
	c0-0.88,0.136-1.804,0.408-2.772c0.272-0.968,0.692-1.848,1.26-2.64c0.567-0.792,1.28-1.448,2.136-1.968s1.868-0.78,3.036-0.78
	c1.504,0,2.632,0.417,3.384,1.248c0.752,0.832,1.128,2,1.128,3.504c0,0.896-0.136,1.824-0.408,2.784
	c-0.272,0.96-0.688,1.836-1.248,2.628s-1.272,1.444-2.136,1.956C161.205,186.48,160.181,186.737,158.997,186.737z M159.237,184.841
	c0.752,0,1.396-0.204,1.932-0.612c0.536-0.408,0.972-0.924,1.308-1.548s0.584-1.3,0.744-2.028c0.16-0.728,0.24-1.412,0.24-2.052
	c0-0.912-0.204-1.608-0.612-2.088c-0.408-0.48-0.988-0.72-1.74-0.72s-1.392,0.208-1.92,0.624c-0.528,0.417-0.96,0.936-1.296,1.56
	s-0.58,1.3-0.732,2.028c-0.152,0.728-0.228,1.404-0.228,2.028c0,0.912,0.196,1.608,0.588,2.088S158.485,184.841,159.237,184.841z"/>
<path fill="#6D6E71" d="M169.687,173.801c0.16-0.896,0.284-1.668,0.372-2.316s0.14-1.228,0.156-1.74c0-0.192,0-0.344,0-0.456
	c0-0.112-0.008-0.255-0.024-0.432c0.176-0.032,0.388-0.056,0.636-0.072c0.248-0.016,0.46-0.024,0.636-0.024
	c0.16,0,0.339,0.008,0.54,0.024c0.2,0.016,0.388,0.04,0.564,0.072c0.032,0.144,0.048,0.288,0.048,0.432s0,0.296,0,0.456
	c0,0.176-0.012,0.388-0.036,0.636s-0.052,0.508-0.084,0.78c-0.032,0.272-0.072,0.552-0.12,0.84
	c-0.048,0.288-0.096,0.561-0.144,0.816l-1.872,10.128c-0.048,0.272-0.072,0.488-0.072,0.648c0,0.256,0.036,0.46,0.108,0.612
	c0.072,0.152,0.164,0.264,0.276,0.336c0.111,0.072,0.236,0.116,0.372,0.132s0.268,0.024,0.396,0.024
	c0.144,0,0.308-0.016,0.492-0.048c0.184-0.032,0.34-0.064,0.468-0.096c0.144,0.416,0.216,0.912,0.216,1.488
	c0,0.064-0.004,0.125-0.012,0.18c-0.008,0.056-0.012,0.108-0.012,0.156c-0.24,0.08-0.532,0.14-0.876,0.18
	c-0.344,0.04-0.684,0.06-1.02,0.06c-0.417,0-0.796-0.04-1.14-0.12c-0.344-0.08-0.64-0.224-0.888-0.432s-0.44-0.484-0.576-0.828
	c-0.136-0.344-0.204-0.772-0.204-1.284c0-0.304,0.032-0.624,0.096-0.96c0.063-0.336,0.127-0.664,0.192-0.984L169.687,173.801z"/>
<path fill="#6D6E71" d="M176.224,174.137c0.176-0.032,0.38-0.056,0.612-0.072c0.231-0.016,0.436-0.024,0.612-0.024
	c0.176,0,0.368,0.008,0.576,0.024c0.208,0.016,0.399,0.04,0.576,0.072l-1.296,7.392c-0.096,0.512-0.144,0.968-0.144,1.368
	c0,0.64,0.148,1.096,0.444,1.368c0.296,0.272,0.692,0.408,1.188,0.408c0.432,0,0.856-0.132,1.272-0.396
	c0.416-0.264,0.808-0.652,1.176-1.164c0.368-0.512,0.7-1.144,0.996-1.896c0.296-0.752,0.532-1.616,0.708-2.592l0.792-4.488
	c0.192-0.032,0.399-0.056,0.624-0.072c0.224-0.016,0.424-0.024,0.6-0.024c0.176,0,0.372,0.008,0.588,0.024
	c0.216,0.016,0.404,0.04,0.564,0.072l-1.272,7.128c-0.176,0.96-0.316,1.784-0.42,2.472c-0.104,0.688-0.156,1.288-0.156,1.8
	c0,0.208,0.004,0.372,0.012,0.492c0.008,0.12,0.02,0.268,0.036,0.444c-0.176,0.032-0.364,0.056-0.564,0.072
	c-0.2,0.016-0.388,0.024-0.564,0.024c-0.16,0-0.34-0.008-0.54-0.024c-0.2-0.016-0.38-0.041-0.54-0.072
	c-0.064-0.208-0.096-0.576-0.096-1.104c0-0.304,0.02-0.592,0.06-0.864c0.04-0.272,0.084-0.536,0.132-0.792
	c-0.16,0.336-0.384,0.684-0.672,1.044s-0.624,0.684-1.008,0.972c-0.384,0.288-0.812,0.528-1.284,0.72
	c-0.472,0.192-0.972,0.288-1.5,0.288c-0.96,0-1.708-0.256-2.244-0.768s-0.804-1.304-0.804-2.376c0-0.24,0.016-0.508,0.048-0.804
	c0.032-0.296,0.072-0.58,0.12-0.852L176.224,174.137z"/>
<path fill="#6D6E71" d="M191.646,186.641c-1.344-0.192-2.328-0.704-2.952-1.536c-0.624-0.832-0.936-1.928-0.936-3.288
	c0-0.96,0.156-1.916,0.468-2.868c0.312-0.952,0.776-1.808,1.392-2.568c0.616-0.76,1.368-1.372,2.256-1.836s1.908-0.696,3.06-0.696
	c0.528,0,1.032,0.048,1.512,0.144c0.48,0.096,0.896,0.208,1.248,0.336c-0.016,0.304-0.08,0.636-0.192,0.996
	c-0.112,0.36-0.256,0.676-0.432,0.948c-0.32-0.128-0.668-0.236-1.044-0.324s-0.772-0.132-1.188-0.132
	c-0.784,0-1.464,0.172-2.04,0.516c-0.576,0.344-1.056,0.792-1.44,1.344c-0.384,0.552-0.668,1.172-0.852,1.86
	c-0.184,0.688-0.276,1.368-0.276,2.04c0,1.088,0.268,1.892,0.804,2.412c0.536,0.52,1.275,0.78,2.22,0.78
	c0.416,0,0.828-0.036,1.236-0.108c0.408-0.072,0.828-0.196,1.26-0.372c0.128,0.225,0.228,0.492,0.3,0.804
	c0.072,0.312,0.108,0.668,0.108,1.068c-0.448,0.176-0.957,0.312-1.524,0.408c-0.568,0.096-1.1,0.152-1.596,0.168l-0.6,1.104
	c0.064-0.016,0.132-0.028,0.204-0.036c0.072-0.008,0.164-0.012,0.276-0.012c0.672,0,1.188,0.176,1.548,0.528
	c0.36,0.352,0.54,0.8,0.54,1.344c0,0.496-0.096,0.908-0.288,1.236c-0.192,0.328-0.448,0.592-0.768,0.792
	c-0.32,0.2-0.684,0.34-1.092,0.42c-0.408,0.08-0.828,0.12-1.26,0.12c-0.496,0-0.933-0.048-1.308-0.144
	c-0.376-0.096-0.652-0.2-0.828-0.312c0.048-0.208,0.116-0.436,0.204-0.684c0.088-0.249,0.204-0.46,0.348-0.636
	c0.224,0.08,0.48,0.156,0.768,0.228c0.288,0.072,0.56,0.108,0.816,0.108c0.16,0,0.332-0.008,0.516-0.024s0.356-0.056,0.516-0.12
	c0.16-0.064,0.292-0.16,0.396-0.288c0.104-0.128,0.156-0.304,0.156-0.528c0-0.304-0.128-0.516-0.384-0.636s-0.592-0.18-1.008-0.18
	c-0.224,0-0.448,0.016-0.672,0.048c-0.225,0.032-0.44,0.072-0.648,0.12l-0.12-0.12L191.646,186.641z"/>
<path fill="#6D6E71" d="M202.583,186.737c-1.488,0-2.608-0.412-3.36-1.236c-0.752-0.824-1.128-1.988-1.128-3.492
	c0-0.88,0.136-1.804,0.408-2.772c0.272-0.968,0.692-1.848,1.26-2.64c0.567-0.792,1.28-1.448,2.136-1.968s1.868-0.78,3.036-0.78
	c1.504,0,2.632,0.417,3.384,1.248c0.752,0.832,1.128,2,1.128,3.504c0,0.896-0.136,1.824-0.408,2.784
	c-0.272,0.96-0.688,1.836-1.248,2.628s-1.272,1.444-2.136,1.956C204.791,186.48,203.767,186.737,202.583,186.737z M202.823,184.841
	c0.752,0,1.396-0.204,1.932-0.612c0.536-0.408,0.972-0.924,1.308-1.548s0.584-1.3,0.744-2.028c0.16-0.728,0.24-1.412,0.24-2.052
	c0-0.912-0.204-1.608-0.612-2.088c-0.408-0.48-0.988-0.72-1.74-0.72s-1.392,0.208-1.92,0.624c-0.528,0.417-0.96,0.936-1.296,1.56
	s-0.58,1.3-0.732,2.028c-0.152,0.728-0.228,1.404-0.228,2.028c0,0.912,0.196,1.608,0.588,2.088S202.071,184.841,202.823,184.841z
	 M201.119,170.609c0.304-0.32,0.667-0.6,1.092-0.84c0.424-0.24,0.892-0.36,1.404-0.36c0.336,0,0.64,0.044,0.912,0.132
	c0.272,0.088,0.536,0.185,0.792,0.288c0.256,0.104,0.516,0.2,0.78,0.288c0.264,0.088,0.556,0.132,0.876,0.132
	c0.272,0,0.52-0.04,0.744-0.12s0.496-0.256,0.816-0.528c0.128,0.16,0.264,0.364,0.408,0.612s0.232,0.492,0.264,0.732
	c-0.304,0.288-0.672,0.552-1.104,0.792c-0.432,0.24-0.904,0.36-1.416,0.36c-0.336,0-0.64-0.044-0.912-0.132s-0.536-0.188-0.792-0.3
	c-0.256-0.111-0.516-0.212-0.78-0.3c-0.264-0.088-0.54-0.132-0.828-0.132c-0.304,0-0.564,0.052-0.78,0.156
	c-0.216,0.104-0.477,0.276-0.78,0.516c-0.144-0.16-0.288-0.36-0.432-0.6C201.239,171.065,201.151,170.833,201.119,170.609z"/>
<path fill="#6D6E71" d="M213.726,181.553c0.048,1.072,0.32,1.88,0.816,2.424c0.496,0.544,1.264,0.816,2.304,0.816
	c0.64,0,1.248-0.076,1.824-0.228c0.576-0.152,1.096-0.316,1.56-0.492c0.144,0.24,0.248,0.528,0.312,0.864
	c0.064,0.336,0.096,0.672,0.096,1.008c-0.24,0.112-0.532,0.216-0.876,0.312c-0.344,0.096-0.704,0.18-1.08,0.252
	c-0.376,0.072-0.756,0.128-1.14,0.168c-0.384,0.04-0.736,0.06-1.056,0.06c-0.944,0-1.74-0.124-2.388-0.372s-1.176-0.592-1.584-1.032
	c-0.408-0.439-0.704-0.96-0.888-1.56c-0.184-0.6-0.276-1.252-0.276-1.956c0-0.976,0.164-1.94,0.492-2.892
	c0.328-0.952,0.8-1.804,1.416-2.556c0.616-0.752,1.352-1.36,2.208-1.824c0.855-0.464,1.812-0.696,2.868-0.696
	c1.056,0,1.892,0.26,2.508,0.78c0.616,0.52,0.924,1.212,0.924,2.076c0,0.705-0.172,1.316-0.516,1.836
	c-0.344,0.521-0.82,0.964-1.428,1.332c-0.608,0.369-1.324,0.672-2.148,0.912c-0.824,0.24-1.724,0.432-2.7,0.576L213.726,181.553z
	 M215.238,179.537c0.816-0.144,1.492-0.308,2.028-0.492s0.964-0.384,1.284-0.6c0.32-0.216,0.543-0.444,0.672-0.684
	c0.128-0.24,0.192-0.504,0.192-0.792c0-0.368-0.128-0.668-0.384-0.9c-0.256-0.232-0.624-0.348-1.104-0.348
	c-0.512,0-0.984,0.116-1.416,0.348s-0.82,0.536-1.164,0.912c-0.344,0.376-0.636,0.808-0.876,1.296
	c-0.24,0.488-0.424,0.988-0.552,1.5L215.238,179.537z"/>
<path fill="#6D6E71" d="M226.441,180.665c-0.24-0.096-0.497-0.216-0.768-0.36c-0.272-0.144-0.521-0.328-0.744-0.552
	c-0.224-0.224-0.412-0.508-0.564-0.852c-0.152-0.344-0.228-0.756-0.228-1.236c0-0.592,0.12-1.124,0.36-1.596
	c0.24-0.472,0.576-0.872,1.008-1.2c0.432-0.328,0.948-0.58,1.548-0.756c0.6-0.176,1.268-0.264,2.004-0.264
	c0.656,0,1.28,0.072,1.872,0.216c0.592,0.144,1.056,0.304,1.392,0.48c-0.128,0.624-0.36,1.224-0.696,1.8
	c-0.272-0.128-0.648-0.26-1.128-0.396c-0.48-0.136-0.992-0.204-1.536-0.204c-0.688,0-1.26,0.12-1.716,0.36
	c-0.456,0.24-0.684,0.656-0.684,1.248c0,0.369,0.108,0.676,0.324,0.924c0.216,0.248,0.604,0.484,1.164,0.708l0.528,0.24
	c0.304,0.144,0.62,0.296,0.948,0.456c0.328,0.16,0.624,0.356,0.888,0.588c0.264,0.232,0.48,0.512,0.648,0.84
	s0.252,0.732,0.252,1.212c0,0.768-0.144,1.428-0.432,1.98c-0.288,0.552-0.684,1.008-1.188,1.368
	c-0.504,0.36-1.088,0.628-1.752,0.804c-0.665,0.176-1.38,0.264-2.148,0.264c-0.64,0-1.268-0.056-1.884-0.168
	c-0.616-0.112-1.124-0.256-1.524-0.432c0.032-0.352,0.092-0.688,0.18-1.008c0.088-0.32,0.22-0.624,0.396-0.912
	c0.416,0.176,0.904,0.316,1.464,0.42c0.56,0.104,1.08,0.156,1.56,0.156c0.399,0,0.776-0.036,1.128-0.108
	c0.352-0.072,0.656-0.184,0.912-0.336c0.255-0.152,0.459-0.356,0.612-0.612c0.152-0.256,0.228-0.576,0.228-0.96
	c0-0.496-0.144-0.868-0.432-1.116c-0.288-0.248-0.696-0.476-1.224-0.684L226.441,180.665z"/>
<path fill="#6D6E71" d="M242.353,169.193h9.144c0,0.72-0.128,1.44-0.384,2.16h-6.672l-0.864,4.92h5.328
	c0,0.736-0.128,1.456-0.384,2.16h-5.328c-0.176,0.992-0.348,1.972-0.516,2.94c-0.168,0.968-0.34,1.948-0.516,2.94h6.864
	c-0.048,0.417-0.088,0.776-0.12,1.08c-0.032,0.304-0.12,0.656-0.264,1.056h-9.312L242.353,169.193z"/>
<path fill="#6D6E71" d="M261.655,181.217c-0.176,0.96-0.312,1.784-0.408,2.472c-0.096,0.688-0.144,1.288-0.144,1.8
	c0,0.208,0,0.372,0,0.492c0,0.12,0.016,0.268,0.048,0.444c-0.176,0.032-0.364,0.056-0.564,0.072c-0.2,0.016-0.388,0.024-0.564,0.024
	c-0.176,0-0.36-0.008-0.552-0.024c-0.192-0.016-0.368-0.04-0.528-0.072c-0.032-0.128-0.06-0.268-0.084-0.42
	s-0.036-0.364-0.036-0.636c0-0.192,0.02-0.459,0.06-0.804c0.04-0.344,0.1-0.66,0.18-0.948c-0.192,0.352-0.432,0.712-0.72,1.08
	s-0.624,0.704-1.008,1.008c-0.384,0.304-0.813,0.552-1.284,0.744c-0.472,0.192-0.98,0.288-1.524,0.288
	c-1.056,0-1.856-0.348-2.4-1.044c-0.544-0.696-0.816-1.644-0.816-2.844c0-1.136,0.176-2.244,0.528-3.324
	c0.352-1.08,0.872-2.04,1.56-2.88c0.688-0.84,1.548-1.516,2.58-2.028c1.032-0.512,2.22-0.768,3.564-0.768
	c0.176,0,0.36,0.008,0.552,0.024c0.192,0.016,0.352,0.032,0.48,0.048c0.176-0.928,0.312-1.728,0.408-2.4
	c0.096-0.672,0.144-1.264,0.144-1.776c0-0.208,0-0.368,0-0.48c0-0.112-0.008-0.248-0.024-0.408c0.176-0.032,0.388-0.056,0.636-0.072
	c0.248-0.016,0.46-0.024,0.636-0.024c0.16,0,0.339,0.004,0.54,0.012c0.2,0.008,0.38,0.028,0.54,0.06
	c0.048,0.32,0.072,0.616,0.072,0.888c0,0.368-0.036,0.84-0.108,1.416c-0.072,0.576-0.156,1.128-0.252,1.656L261.655,181.217z
	 M260.263,175.961c-0.192-0.048-0.392-0.08-0.6-0.096c-0.208-0.016-0.44-0.024-0.696-0.024c-0.8,0-1.516,0.184-2.148,0.552
	c-0.632,0.368-1.176,0.86-1.632,1.476c-0.456,0.616-0.804,1.312-1.044,2.088c-0.24,0.776-0.36,1.572-0.36,2.388
	c0,0.768,0.136,1.364,0.408,1.788c0.272,0.424,0.68,0.636,1.224,0.636c0.496,0,0.976-0.16,1.44-0.48
	c0.464-0.32,0.888-0.764,1.272-1.332c0.384-0.567,0.72-1.231,1.008-1.992c0.288-0.76,0.512-1.572,0.672-2.436L260.263,175.961z"/>
<path fill="#6D6E71" d="M266.378,174.137c0.176-0.032,0.38-0.056,0.612-0.072c0.231-0.016,0.436-0.024,0.612-0.024
	c0.176,0,0.368,0.008,0.576,0.024c0.208,0.016,0.399,0.04,0.576,0.072l-1.296,7.392c-0.096,0.512-0.144,0.968-0.144,1.368
	c0,0.64,0.148,1.096,0.444,1.368c0.296,0.272,0.692,0.408,1.188,0.408c0.432,0,0.856-0.132,1.272-0.396
	c0.416-0.264,0.808-0.652,1.176-1.164c0.368-0.512,0.7-1.144,0.996-1.896c0.296-0.752,0.532-1.616,0.708-2.592l0.792-4.488
	c0.192-0.032,0.399-0.056,0.624-0.072c0.224-0.016,0.424-0.024,0.6-0.024c0.176,0,0.372,0.008,0.588,0.024
	c0.216,0.016,0.404,0.04,0.564,0.072l-1.272,7.128c-0.176,0.96-0.316,1.784-0.42,2.472c-0.104,0.688-0.156,1.288-0.156,1.8
	c0,0.208,0.004,0.372,0.012,0.492c0.008,0.12,0.02,0.268,0.036,0.444c-0.176,0.032-0.364,0.056-0.564,0.072
	c-0.2,0.016-0.388,0.024-0.564,0.024c-0.16,0-0.34-0.008-0.54-0.024c-0.2-0.016-0.38-0.041-0.54-0.072
	c-0.064-0.208-0.096-0.576-0.096-1.104c0-0.304,0.02-0.592,0.06-0.864c0.04-0.272,0.084-0.536,0.132-0.792
	c-0.16,0.336-0.384,0.684-0.672,1.044s-0.624,0.684-1.008,0.972c-0.384,0.288-0.812,0.528-1.284,0.72
	c-0.472,0.192-0.972,0.288-1.5,0.288c-0.96,0-1.708-0.256-2.244-0.768s-0.804-1.304-0.804-2.376c0-0.24,0.016-0.508,0.048-0.804
	c0.032-0.296,0.072-0.58,0.12-0.852L266.378,174.137z"/>
<path fill="#6D6E71" d="M285.904,184.289c0.128,0.225,0.229,0.492,0.3,0.804c0.072,0.312,0.108,0.668,0.108,1.068
	c-0.465,0.192-1,0.336-1.608,0.432c-0.608,0.096-1.16,0.144-1.656,0.144c-1.76,0-3.056-0.432-3.888-1.296
	c-0.832-0.864-1.248-2.072-1.248-3.624c0-0.96,0.156-1.916,0.468-2.868c0.312-0.952,0.776-1.808,1.392-2.568
	c0.616-0.76,1.368-1.372,2.256-1.836s1.908-0.696,3.06-0.696c0.528,0,1.032,0.048,1.512,0.144c0.48,0.096,0.896,0.208,1.248,0.336
	c-0.016,0.304-0.08,0.636-0.191,0.996c-0.112,0.36-0.256,0.676-0.432,0.948c-0.32-0.128-0.668-0.236-1.045-0.324
	c-0.375-0.088-0.771-0.132-1.188-0.132c-0.784,0-1.464,0.172-2.04,0.516c-0.576,0.344-1.056,0.792-1.44,1.344
	c-0.384,0.552-0.668,1.172-0.852,1.86c-0.184,0.688-0.276,1.368-0.276,2.04c0,1.088,0.268,1.892,0.804,2.412
	c0.536,0.52,1.275,0.78,2.22,0.78c0.416,0,0.828-0.036,1.236-0.108C285.053,184.589,285.473,184.465,285.904,184.289z"/>
<path fill="#6D6E71" d="M298.598,181.217c-0.176,0.96-0.316,1.784-0.42,2.472s-0.156,1.288-0.156,1.8
	c0,0.208,0.004,0.372,0.013,0.492c0.008,0.12,0.028,0.268,0.06,0.444c-0.176,0.032-0.368,0.056-0.576,0.072
	c-0.207,0.016-0.399,0.024-0.576,0.024c-0.16,0-0.336-0.008-0.527-0.024s-0.376-0.04-0.553-0.072
	c-0.031-0.176-0.056-0.356-0.071-0.54c-0.017-0.184-0.024-0.412-0.024-0.684c0-0.176,0.021-0.416,0.061-0.72
	c0.039-0.304,0.084-0.576,0.132-0.816c-0.177,0.353-0.407,0.708-0.696,1.068c-0.287,0.36-0.62,0.688-0.996,0.984
	c-0.375,0.296-0.8,0.54-1.271,0.732c-0.473,0.192-0.98,0.288-1.523,0.288c-1.057,0-1.853-0.348-2.389-1.044
	c-0.536-0.696-0.805-1.644-0.805-2.844c0-1.136,0.177-2.244,0.529-3.324c0.352-1.08,0.871-2.04,1.56-2.88
	c0.688-0.84,1.544-1.516,2.567-2.028c1.024-0.512,2.217-0.768,3.576-0.768c0.576,0,1.156,0.044,1.74,0.132s1.1,0.212,1.548,0.372
	L298.598,181.217z M297.23,175.961c-0.192-0.048-0.393-0.08-0.601-0.096c-0.208-0.016-0.44-0.024-0.696-0.024
	c-0.8,0-1.516,0.184-2.147,0.552c-0.632,0.368-1.177,0.86-1.632,1.476c-0.456,0.616-0.805,1.312-1.045,2.088
	c-0.239,0.776-0.359,1.572-0.359,2.388c0,0.768,0.136,1.364,0.408,1.788c0.271,0.424,0.68,0.636,1.224,0.636
	c0.496,0,0.976-0.16,1.44-0.48c0.464-0.32,0.888-0.764,1.271-1.332c0.385-0.567,0.717-1.231,0.996-1.992
	c0.279-0.76,0.5-1.572,0.66-2.436L297.23,175.961z"/>
<path fill="#6D6E71" d="M309.473,184.289c0.127,0.225,0.228,0.492,0.299,0.804c0.072,0.312,0.109,0.668,0.109,1.068
	c-0.465,0.192-1.001,0.336-1.609,0.432c-0.607,0.096-1.16,0.144-1.655,0.144c-1.761,0-3.056-0.432-3.888-1.296
	c-0.832-0.864-1.248-2.072-1.248-3.624c0-0.96,0.156-1.916,0.468-2.868c0.312-0.952,0.776-1.808,1.392-2.568
	c0.616-0.76,1.368-1.372,2.256-1.836c0.889-0.464,1.908-0.696,3.061-0.696c0.527,0,1.031,0.048,1.512,0.144
	c0.48,0.096,0.896,0.208,1.248,0.336c-0.016,0.304-0.08,0.636-0.191,0.996c-0.113,0.36-0.256,0.676-0.433,0.948
	c-0.32-0.128-0.668-0.236-1.044-0.324s-0.771-0.132-1.188-0.132c-0.785,0-1.465,0.172-2.041,0.516
	c-0.575,0.344-1.055,0.792-1.439,1.344c-0.384,0.552-0.668,1.172-0.852,1.86c-0.185,0.688-0.276,1.368-0.276,2.04
	c0,1.088,0.268,1.892,0.804,2.412s1.275,0.78,2.221,0.78c0.416,0,0.828-0.036,1.236-0.108
	C308.62,184.589,309.04,184.465,309.473,184.289z"/>
<path fill="#6D6E71" d="M314.676,176.033h-1.488c0-0.32,0.02-0.632,0.061-0.936c0.039-0.304,0.123-0.624,0.252-0.96h3.84
	l-2.16,12.312c-0.176,0.032-0.381,0.052-0.612,0.06c-0.231,0.008-0.437,0.012-0.612,0.012s-0.359-0.004-0.552-0.012
	c-0.192-0.008-0.376-0.028-0.552-0.06L314.676,176.033z M314.651,171.593c0-0.464,0.04-0.904,0.12-1.32s0.184-0.84,0.313-1.272
	c0.223-0.032,0.463-0.056,0.72-0.072c0.255-0.016,0.479-0.024,0.672-0.024s0.411,0.008,0.659,0.024
	c0.248,0.016,0.477,0.04,0.685,0.072c-0.017,0.464-0.063,0.909-0.144,1.332c-0.08,0.424-0.185,0.844-0.313,1.26
	c-0.225,0.032-0.464,0.052-0.72,0.06c-0.257,0.008-0.479,0.012-0.672,0.012c-0.177,0-0.393-0.003-0.648-0.012
	C315.067,171.645,314.844,171.625,314.651,171.593z"/>
<path fill="#6D6E71" d="M323.572,186.737c-1.488,0-2.608-0.412-3.36-1.236c-0.753-0.824-1.128-1.988-1.128-3.492
	c0-0.88,0.136-1.804,0.408-2.772c0.271-0.968,0.691-1.848,1.26-2.64c0.567-0.792,1.279-1.448,2.136-1.968s1.868-0.78,3.036-0.78
	c1.504,0,2.632,0.417,3.384,1.248c0.752,0.832,1.128,2,1.128,3.504c0,0.896-0.136,1.824-0.408,2.784
	c-0.271,0.96-0.688,1.836-1.248,2.628c-0.56,0.792-1.271,1.444-2.136,1.956S324.756,186.737,323.572,186.737z M323.812,184.841
	c0.752,0,1.396-0.204,1.933-0.612c0.535-0.408,0.972-0.924,1.308-1.548s0.584-1.3,0.744-2.028c0.159-0.728,0.239-1.412,0.239-2.052
	c0-0.912-0.203-1.608-0.611-2.088s-0.988-0.72-1.74-0.72s-1.392,0.208-1.92,0.624c-0.527,0.417-0.96,0.936-1.296,1.56
	s-0.58,1.3-0.731,2.028c-0.152,0.728-0.229,1.404-0.229,2.028c0,0.912,0.195,1.608,0.588,2.088S323.06,184.841,323.812,184.841z"/>
<path fill="#6D6E71" d="M333.436,179.321c0.176-0.96,0.316-1.784,0.42-2.472c0.104-0.688,0.156-1.288,0.156-1.8
	c0-0.208-0.004-0.372-0.012-0.492s-0.028-0.268-0.061-0.444c0.176-0.032,0.368-0.056,0.576-0.072c0.208-0.016,0.4-0.024,0.576-0.024
	c0.16,0,0.34,0.008,0.54,0.024c0.2,0.016,0.38,0.041,0.54,0.072c0.031,0.128,0.056,0.276,0.072,0.444
	c0.016,0.168,0.023,0.388,0.023,0.66c0,0.304-0.02,0.592-0.06,0.864c-0.04,0.272-0.084,0.537-0.132,0.792
	c0.159-0.336,0.384-0.684,0.672-1.044c0.287-0.36,0.624-0.684,1.008-0.972c0.384-0.288,0.813-0.528,1.284-0.72
	s0.972-0.288,1.5-0.288c0.96,0,1.708,0.256,2.243,0.768c0.537,0.512,0.805,1.304,0.805,2.376c0,0.24-0.016,0.508-0.048,0.804
	s-0.072,0.58-0.12,0.852l-1.368,7.8c-0.192,0.032-0.399,0.056-0.624,0.072s-0.424,0.024-0.6,0.024c-0.177,0-0.372-0.008-0.588-0.024
	c-0.217-0.016-0.404-0.04-0.564-0.072l1.296-7.392c0.048-0.256,0.084-0.504,0.108-0.744c0.023-0.24,0.035-0.448,0.035-0.624
	c0-0.64-0.147-1.096-0.443-1.368c-0.297-0.272-0.692-0.408-1.188-0.408c-0.433,0-0.856,0.132-1.272,0.396
	c-0.417,0.264-0.808,0.652-1.177,1.164c-0.367,0.512-0.699,1.144-0.995,1.896c-0.296,0.752-0.532,1.616-0.708,2.592l-0.792,4.488
	c-0.192,0.032-0.4,0.056-0.624,0.072c-0.225,0.016-0.424,0.024-0.6,0.024c-0.177,0-0.373-0.008-0.588-0.024
	c-0.217-0.016-0.404-0.04-0.564-0.072L333.436,179.321z"/>
<path fill="#6D6E71" d="M355.975,181.217c-0.177,0.96-0.316,1.784-0.42,2.472c-0.105,0.688-0.156,1.288-0.156,1.8
	c0,0.208,0.004,0.372,0.012,0.492c0.008,0.12,0.027,0.268,0.061,0.444c-0.177,0.032-0.369,0.056-0.576,0.072
	c-0.209,0.016-0.4,0.024-0.576,0.024c-0.16,0-0.336-0.008-0.528-0.024s-0.376-0.04-0.552-0.072c-0.033-0.176-0.057-0.356-0.072-0.54
	c-0.016-0.184-0.023-0.412-0.023-0.684c0-0.176,0.02-0.416,0.06-0.72c0.04-0.304,0.084-0.576,0.132-0.816
	c-0.176,0.353-0.408,0.708-0.695,1.068c-0.289,0.36-0.621,0.688-0.996,0.984c-0.377,0.296-0.801,0.54-1.272,0.732
	s-0.98,0.288-1.524,0.288c-1.056,0-1.852-0.348-2.388-1.044c-0.536-0.696-0.804-1.644-0.804-2.844c0-1.136,0.176-2.244,0.527-3.324
	c0.352-1.08,0.872-2.04,1.561-2.88c0.688-0.84,1.544-1.516,2.568-2.028c1.023-0.512,2.215-0.768,3.576-0.768
	c0.575,0,1.155,0.044,1.739,0.132s1.101,0.212,1.548,0.372L355.975,181.217z M354.605,175.961c-0.191-0.048-0.392-0.08-0.6-0.096
	c-0.208-0.016-0.439-0.024-0.695-0.024c-0.801,0-1.517,0.184-2.148,0.552c-0.633,0.368-1.176,0.86-1.632,1.476
	c-0.456,0.616-0.804,1.312-1.044,2.088c-0.24,0.776-0.36,1.572-0.36,2.388c0,0.768,0.136,1.364,0.408,1.788s0.68,0.636,1.224,0.636
	c0.496,0,0.977-0.16,1.44-0.48c0.464-0.32,0.888-0.764,1.272-1.332c0.383-0.567,0.715-1.231,0.995-1.992
	c0.28-0.76,0.5-1.572,0.66-2.436L354.605,175.961z"/>
<path fill="#6D6E71" d="M360.999,176.033h-1.487c0-0.32,0.02-0.632,0.06-0.936c0.04-0.304,0.124-0.624,0.252-0.96h3.84
	l-2.159,12.312c-0.177,0.032-0.381,0.052-0.613,0.06c-0.231,0.008-0.436,0.012-0.611,0.012s-0.359-0.004-0.553-0.012
	c-0.191-0.008-0.375-0.028-0.551-0.06L360.999,176.033z M360.975,171.593c0-0.464,0.041-0.904,0.121-1.32s0.184-0.84,0.312-1.272
	c0.224-0.032,0.464-0.056,0.72-0.072c0.256-0.016,0.48-0.024,0.672-0.024c0.192,0,0.412,0.008,0.66,0.024
	c0.248,0.016,0.477,0.04,0.684,0.072c-0.016,0.464-0.063,0.909-0.144,1.332c-0.08,0.424-0.185,0.844-0.312,1.26
	c-0.225,0.032-0.465,0.052-0.721,0.06c-0.256,0.008-0.479,0.012-0.672,0.012c-0.176,0-0.393-0.003-0.648-0.012
	C361.391,171.645,361.167,171.625,360.975,171.593z"/>
<path fill="#6D6E71" d="M368.264,180.665c-0.24-0.096-0.496-0.216-0.768-0.36c-0.273-0.144-0.521-0.328-0.744-0.552
	c-0.225-0.224-0.412-0.508-0.564-0.852s-0.229-0.756-0.229-1.236c0-0.592,0.121-1.124,0.36-1.596c0.24-0.472,0.576-0.872,1.009-1.2
	c0.432-0.328,0.947-0.58,1.547-0.756c0.601-0.176,1.269-0.264,2.004-0.264c0.656,0,1.28,0.072,1.873,0.216
	c0.592,0.144,1.056,0.304,1.392,0.48c-0.128,0.624-0.36,1.224-0.696,1.8c-0.271-0.128-0.648-0.26-1.128-0.396
	c-0.479-0.136-0.992-0.204-1.536-0.204c-0.688,0-1.26,0.12-1.716,0.36c-0.456,0.24-0.685,0.656-0.685,1.248
	c0,0.369,0.108,0.676,0.324,0.924c0.217,0.248,0.604,0.484,1.164,0.708l0.528,0.24c0.304,0.144,0.62,0.296,0.948,0.456
	c0.328,0.16,0.624,0.356,0.888,0.588c0.265,0.232,0.479,0.512,0.647,0.84s0.252,0.732,0.252,1.212c0,0.768-0.144,1.428-0.432,1.98
	c-0.287,0.552-0.684,1.008-1.188,1.368c-0.504,0.36-1.088,0.628-1.752,0.804s-1.381,0.264-2.148,0.264
	c-0.641,0-1.268-0.056-1.884-0.168c-0.616-0.112-1.124-0.256-1.524-0.432c0.032-0.352,0.092-0.688,0.18-1.008
	c0.088-0.32,0.221-0.624,0.396-0.912c0.416,0.176,0.904,0.316,1.465,0.42c0.559,0.104,1.08,0.156,1.56,0.156
	c0.399,0,0.776-0.036,1.128-0.108c0.352-0.072,0.656-0.184,0.912-0.336c0.256-0.152,0.459-0.356,0.611-0.612s0.229-0.576,0.229-0.96
	c0-0.496-0.145-0.868-0.432-1.116c-0.289-0.248-0.696-0.476-1.225-0.684L368.264,180.665z"/>
<g>
	<path fill="#F7941E" d="M73.045,171.554c0,0,24.789,5.464,33.996,1.012c2.127-1.028,2.458-4.564,2.191-7.69
		c-2.834-33.32-14.029-53.556-19.29-52.207c0,0-17.065-13.152-26.104-2.022c0,0,13.397-27.04,22.882-17.319
		c9.456,9.69,31.482,33.979,43.516,69.94c0,0,6.044,14.087-3.535,17.257C116.537,183.89,73.045,171.554,73.045,171.554z"/>
	<linearGradient id="SVGID_1_" gradientUnits="userSpaceOnUse" x1="95.9771" y1="184.7939" x2="121.4948" y2="140.596">
		<stop  offset="0" style="stop-color:#A41D21"/>
		<stop  offset="0.3239" style="stop-color:#B94323;stop-opacity:0.6761"/>
		<stop  offset="1" style="stop-color:#F7941E;stop-opacity:0"/>
	</linearGradient>
	<path fill="url(#SVGID_1_)" d="M109.233,164.876c0.266,3.125-0.064,6.662-2.191,7.69c-9.207,4.452-33.996-1.012-33.996-1.012
		s43.491,12.336,53.657,8.971c9.579-3.169,3.535-17.257,3.535-17.257c-2.815-8.411-6.175-16.184-9.796-23.28h-15.283
		C106.97,147.114,108.434,155.475,109.233,164.876z"/>
	<path fill="#59AA47" d="M50.417,149.227c0,0-15.918,15.379,48.294,24.148c0,0,35.715,5.193,30.353-12.816
		c0,0,6.003,12.715,1.146,17.976c-4.855,5.261-29.239,6.879-44.415,7.386c-15.177,0.505-39.357-1.519-43.203-2.834
		c-3.845-1.314-11.534-11.13-4.754-23.169C44.616,147.879,50.417,149.227,50.417,149.227z"/>
	<linearGradient id="SVGID_2_" gradientUnits="userSpaceOnUse" x1="37.2803" y1="160.8799" x2="86.9583" y2="189.5615">
		<stop  offset="0" style="stop-color:#22553F"/>
		<stop  offset="0.0662" style="stop-color:#275E41;stop-opacity:0.9338"/>
		<stop  offset="0.2207" style="stop-color:#367344;stop-opacity:0.7793"/>
		<stop  offset="0.3771" style="stop-color:#428646;stop-opacity:0.6229"/>
		<stop  offset="0.5332" style="stop-color:#4C9546;stop-opacity:0.4668"/>
		<stop  offset="0.6891" style="stop-color:#53A147;stop-opacity:0.3109"/>
		<stop  offset="0.8447" style="stop-color:#57A847;stop-opacity:0.1553"/>
		<stop  offset="1" style="stop-color:#59AA47;stop-opacity:0"/>
	</linearGradient>
	<path fill="url(#SVGID_2_)" d="M89.132,171.923c-52.983-8.909-38.715-22.696-38.715-22.696s-5.8-1.348-12.579,10.692
		c-6.78,12.039,0.909,21.854,4.754,23.169c3.845,1.315,28.025,3.339,43.203,2.834c1.07-0.037,2.187-0.077,3.337-0.125V171.923z"/>
	<linearGradient id="SVGID_3_" gradientUnits="userSpaceOnUse" x1="74.5137" y1="94.5449" x2="107.4756" y2="151.6366">
		<stop  offset="0" style="stop-color:#A41D21"/>
		<stop  offset="0.3239" style="stop-color:#B94323;stop-opacity:0.6761"/>
		<stop  offset="1" style="stop-color:#F7941E;stop-opacity:0"/>
	</linearGradient>
	<path fill="url(#SVGID_3_)" d="M86.721,93.328c-9.485-9.72-22.882,17.319-22.882,17.319c9.039-11.13,26.104,2.022,26.104,2.022
		c3.995-1.024,11.414,10.403,15.992,30.553h16.114C109.94,118.225,94.297,101.092,86.721,93.328z"/>
	<linearGradient id="SVGID_4_" gradientUnits="userSpaceOnUse" x1="30.1875" y1="137.6108" x2="109.1665" y2="137.6108">
		<stop  offset="0" style="stop-color:#0073AE"/>
		<stop  offset="0.3681" style="stop-color:#0090C8"/>
		<stop  offset="0.7873" style="stop-color:#2DB4E4"/>
		<stop  offset="1" style="stop-color:#49C8F5"/>
	</linearGradient>
	<path fill="url(#SVGID_4_)" d="M109.167,120.764c0,0-12.426-14.392-25.564-4.721c-29.138,21.45-36.559,37.436-41.01,48.564
		c0,0-7.486,18.077,6.879,19.493c0,0-21.346-0.202-19.121-13.558c2.225-13.355,15.614-44.247,39.762-72.037
		c0,0,8.903-12.007,16.591-5.396C94.395,99.72,109.167,120.764,109.167,120.764z"/>
</g>
</svg>
